<svg width="800" height="800" viewBox="0 0 800 800" xmlns="http://www.w3.org/2000/svg">
  <g stroke="#ffffff" stroke-width="1" fill="none">
    <circle cx="400" cy="400" r="200" opacity="0.3"/>
    <circle cx="400" cy="400" r="150" opacity="0.4"/>
    <circle cx="400" cy="400" r="100" opacity="0.5"/>
    
    <line x1="200" y1="400" x2="250" y2="400" opacity="0.6"/>
    <line x1="550" y1="400" x2="600" y2="400" opacity="0.6"/>
    <line x1="400" y1="200" x2="400" y2="250" opacity="0.6"/>
    <line x1="400" y1="550" x2="400" y2="600" opacity="0.6"/>
    
    <circle cx="200" cy="400" r="5" opacity="0.8"/>
    <circle cx="600" cy="400" r="5" opacity="0.8"/>
    <circle cx="400" cy="200" r="5" opacity="0.8"/>
    <circle cx="400" cy="600" r="5" opacity="0.8"/>
    
    <path d="M200,350 C250,300 350,300 400,350" opacity="0.4"/>
    <path d="M400,350 C450,400 550,400 600,350" opacity="0.4"/>
    <path d="M350,200 C300,250 300,350 350,400" opacity="0.4"/>
    <path d="M350,400 C400,450 400,550 350,600" opacity="0.4"/>
    
    <path d="M450,200 C500,250 500,350 450,400" opacity="0.4"/>
    <path d="M450,400 C400,450 400,550 450,600" opacity="0.4"/>
    <path d="M200,450 C250,500 350,500 400,450" opacity="0.4"/>
    <path d="M400,450 C450,400 550,400 600,450" opacity="0.4"/>
    
    <circle cx="200" cy="350" r="3" opacity="0.8"/>
    <circle cx="600" cy="350" r="3" opacity="0.8"/>
    <circle cx="350" cy="200" r="3" opacity="0.8"/>
    <circle cx="350" cy="600" r="3" opacity="0.8"/>
    <circle cx="450" cy="200" r="3" opacity="0.8"/>
    <circle cx="450" cy="600" r="3" opacity="0.8"/>
    <circle cx="200" cy="450" r="3" opacity="0.8"/>
    <circle cx="600" cy="450" r="3" opacity="0.8"/>
  </g>
</svg>