<svg width="1440" height="900" viewBox="0 0 1440 900" xmlns="http://www.w3.org/2000/svg">
  <defs>
    <linearGradient id="gradient" x1="0%" y1="0%" x2="100%" y2="100%">
      <stop offset="0%" stop-color="#10b981" stop-opacity="0.1" />
      <stop offset="100%" stop-color="#14b8a6" stop-opacity="0.1" />
    </linearGradient>
  </defs>
  <path d="M0,288L48,272C96,256,192,224,288,197.3C384,171,480,149,576,165.3C672,181,768,235,864,250.7C960,267,1056,245,1152,224C1248,203,1344,181,1392,170.7L1440,160L1440,0L1392,0C1344,0,1248,0,1152,0C1056,0,960,0,864,0C768,0,672,0,576,0C480,0,384,0,288,0C192,0,96,0,48,0L0,0Z" fill="url(#gradient)"></path>
  <path d="M0,576L48,554.7C96,533,192,491,288,497.3C384,504,480,560,576,577.3C672,595,768,576,864,570.7C960,565,1056,576,1152,570.7C1248,565,1344,544,1392,533.3L1440,523L1440,0L1392,0C1344,0,1248,0,1152,0C1056,0,960,0,864,0C768,0,672,0,576,0C480,0,384,0,288,0C192,0,96,0,48,0L0,0Z" fill="url(#gradient)" opacity="0.6" transform="translate(0, 200)"></path>
  <path d="M0,864L48,842.7C96,821,192,779,288,768C384,757,480,779,576,789.3C672,800,768,800,864,789.3C960,779,1056,757,1152,760C1248,763,1344,789,1392,802.7L1440,816L1440,0L1392,0C1344,0,1248,0,1152,0C1056,0,960,0,864,0C768,0,672,0,576,0C480,0,384,0,288,0C192,0,96,0,48,0L0,0Z" fill="url(#gradient)" opacity="0.4" transform="translate(0, 400)"></path>
</svg>